<svg height="496pt" viewBox="0 0 496 496" width="496pt" xmlns="http://www.w3.org/2000/svg"><path d="m384.921875 348.488281 32.125-16.0625c19.089844-9.5625 30.953125-28.746093 30.953125-50.089843v-37.511719l27.984375-23.984375c12.71875-10.902344 20.015625-26.769532 20.015625-43.519532 0-31.609374-25.710938-57.320312-57.320312-57.320312h-1.519532c-8.296875-27.726562-34-48-64.390625-48h-2.882812c-10.277344-22.625-32.558594-38.609375-58.6875-39.839844-3.648438-18.3125-19.832031-32.160156-39.199219-32.160156h-48c-19.367188 0-35.550781 13.847656-39.207031 32.160156-26.128907 1.230469-48.417969 17.214844-58.6875 39.839844h-2.882813c-30.382812 0-56.09375 20.273438-64.390625 48h-1.519531c-31.601562 0-57.3125 25.710938-57.3125 57.320312 0 16.75 7.296875 32.617188 20.015625 43.519532l27.984375 23.984375v37.511719c0 21.34375 11.863281 40.527343 30.960938 50.089843l32.128906 16.0625c-80.714844 16.175781-111.089844 43.992188-111.089844 67.511719 0 51.960938 127.777344 80 248 80s248-28.039062 248-80c0-23.519531-30.375-51.335938-111.078125-67.511719zm93.71875 61.769531-44.679687 12.183594c-37.535157 10.246094-76.953126 11.984375-115.191407 5.734375 11.132813-15.007812 17.230469-33.054687 17.230469-52.175781 0-6.585938-.785156-12.976562-2.160156-19.144531 86.496094 10.074219 136.558594 33.480469 144.800781 53.402343zm-301.601563-22.664062c-.613281-3.832031-1.039062-7.699219-1.039062-11.59375 0-39.703125 32.304688-72 72-72s72 32.296875 72 72c0 18.28125-6.785156 35.359375-19.054688 48.671875-11.34375-2.640625-22.578124-5.832031-33.53125-9.945313l-33.207031-12.453124c-18.527343-6.9375-37.71875-11.707032-57.167969-14.679688zm254.960938-105.257812c0 15.238281-8.472656 28.953124-22.113281 35.777343l-51.519531 25.757813c-7.167969-1.070313-14.648438-2.054688-22.480469-2.960938l96.113281-82.375zm48-105.015626c0 12.070313-5.257812 23.503907-14.433594 31.367188l-142.285156 121.96875c-2.472656-4.082031-5.21875-7.96875-8.289062-11.585938l110.28125-137.855468c9.496093-11.871094 14.726562-26.78125 14.726562-41.992188 0-1.046875-.113281-2.070312-.160156-3.109375 22.238281.628907 40.160156 18.824219 40.160156 41.207031zm-56-38.097656c0 11.585938-3.984375 22.953125-11.222656 32l-109.265625 136.578125c-2.070313-1.6875-4.207031-3.304687-6.433594-4.800781l73.683594-176.839844c3.476562-8.335937 5.238281-17.136718 5.238281-26.160156 0-4.0625-.425781-8.023438-1.113281-11.894531 27.265625 1.125 49.113281 23.589843 49.113281 51.117187zm-112.121094-65.863281c.082032-.449219.121094-.902344.121094-1.359375v-23.800781c26.808594 2.058593 48 24.472656 48 51.800781 0 6.894531-1.34375 13.632812-4 20l-73.03125 175.289062c-2.855469-1.242187-5.777344-2.367187-8.777344-3.304687zm-111.878906-33.359375c0-13.230469 10.769531-24 24-24h48c13.230469 0 24 10.769531 24 24v31.320312l-37.480469 217.375c-3.457031-.421874-6.953125-.695312-10.519531-.695312s-7.0625.273438-10.519531.6875l-37.480469-217.367188zm-16 8.199219v23.800781c0 .457031.039062.910156.121094 1.359375l37.695312 218.625c-3 .9375-5.921875 2.0625-8.777344 3.304687l-73.039062-175.289062c-2.65625-6.367188-4-13.105469-4-20 0-27.320312 21.191406-49.742188 48-51.800781zm-62.886719 39.90625c-.6875 3.871093-1.113281 7.832031-1.113281 11.894531 0 9.023438 1.761719 17.824219 5.230469 26.160156l73.679687 176.839844c-2.222656 1.496094-4.359375 3.113281-6.429687 4.800781l-109.257813-136.578125c-7.238281-9.046875-11.222656-20.414062-11.222656-32 0-27.527344 21.847656-49.992187 49.113281-51.117187zm-105.113281 89.214843c0-22.382812 17.921875-40.566406 40.160156-41.199218-.046875 1.03125-.160156 2.054687-.160156 3.101562 0 15.203125 5.230469 30.121094 14.726562 41.992188l110.28125 137.855468c-3.078124 3.617188-5.824218 7.503907-8.289062 11.585938l-142.285156-121.96875c-9.175782-7.863281-14.433594-19.296875-14.433594-31.367188zm70.113281 140.792969c-13.640625-6.824219-22.113281-20.539062-22.113281-35.777343v-23.800782l96.113281 82.386719c-7.824219.894531-15.3125 1.886719-22.480469 2.957031zm76.046875 38.742188c-1.375 6.167969-2.160156 12.558593-2.160156 19.144531 0 3.191406.207031 6.382812.550781 9.550781-34.367187-3.253906-69.253906-.558593-102.71875 8.570313l-36.734375 10.015625c14.957032-18.402344 63.308594-38.234375 141.0625-47.28125zm85.839844 123.144531c-128.039062 0-219.726562-29.585938-230.855469-58.199219l44.894531-12.242187c54.671876-14.917969 113.417969-12.214844 166.546876 7.714844l33.207031 12.453124c32.359375 12.121094 66.277343 18.273438 100.824219 18.273438 25.527343 0 50.949218-3.40625 75.550781-10.121094l37.222656-10.152344c-20.519531 26.632813-108.191406 52.273438-227.390625 52.273438zm0 0"/><path d="m288 376h16c0-30.871094-25.121094-56-56-56v16c22.054688 0 40 17.945312 40 40zm0 0"/></svg>