<?xml version="1.0" encoding="UTF-8" standalone="no"?>
<!DOCTYPE svg PUBLIC "-//W3C//DTD SVG 1.1//EN" "http://www.w3.org/Graphics/SVG/1.1/DTD/svg11.dtd">
<svg version="1.1" xmlns="http://www.w3.org/2000/svg" xmlns:xlink="http://www.w3.org/1999/xlink" preserveAspectRatio="xMidYMid meet" viewBox="0 0 640 640" width="640" height="640"><defs><path d="M243.14 306.91C246.9 305.05 249.24 301.31 249.24 297.15C249.24 296.66 249.24 294.23 249.24 289.84C252.55 287.04 254.39 285.48 254.76 285.17C257.26 283.05 258.7 279.95 258.7 276.69C258.7 270.53 253.63 265.52 247.4 265.52C247.37 265.52 247.13 265.52 247.1 265.52C245.47 260.12 240.4 256.17 234.41 256.17C234.35 256.17 233.9 256.17 233.84 256.17C231.81 251.76 227.42 248.65 222.27 248.41C221.55 244.84 218.36 242.14 214.54 242.14C213.6 242.14 206.03 242.14 205.08 242.14C201.26 242.14 198.07 244.84 197.35 248.41C192.2 248.65 187.8 251.76 185.78 256.17C185.72 256.17 185.27 256.17 185.21 256.17C179.22 256.17 174.15 260.12 172.52 265.52C172.49 265.52 172.25 265.52 172.22 265.52C165.99 265.52 160.92 270.53 160.92 276.69C160.92 279.95 162.36 283.05 164.87 285.17C165.23 285.48 167.07 287.04 170.38 289.84C170.38 294.23 170.38 296.66 170.38 297.15C170.38 301.31 172.72 305.05 176.49 306.91C177.12 307.22 182.19 309.73 182.82 310.04C166.91 313.19 160.92 318.61 160.92 323.19C160.92 333.31 186.11 338.78 209.81 338.78C233.51 338.78 258.7 333.31 258.7 323.19C258.7 318.61 252.71 313.19 236.8 310.04C238.07 309.41 242.5 307.22 243.14 306.91ZM246.47 324.45C239.07 326.44 231.3 326.78 223.76 325.56C225.96 322.64 227.16 319.12 227.16 315.4C227.16 314.12 227 312.87 226.73 311.67C243.78 313.63 253.65 318.19 255.28 322.07C253.52 322.55 247.35 324.21 246.47 324.45ZM195.62 315.4C195.62 307.66 201.98 301.37 209.81 301.37C217.64 301.37 224 307.66 224 315.4C224 318.96 222.67 322.29 220.25 324.88C218.01 324.37 215.8 323.74 213.64 322.94C212.98 322.7 207.75 320.76 207.09 320.52C203.44 319.17 199.66 318.24 195.82 317.66C195.7 316.91 195.62 316.16 195.62 315.4ZM246.08 297.15C246.08 300.12 244.41 302.79 241.72 304.12C240.71 304.62 232.58 308.64 231.57 309.14C230.16 308.93 228.68 308.74 227.14 308.56C228.4 307.49 234.72 302.14 246.08 292.51C246.08 294.99 246.08 296.53 246.08 297.15ZM252.7 282.8C249.9 285.18 227.46 304.19 224.65 306.56C224.16 305.77 223.62 305.01 223.02 304.31C225.19 301.62 242.58 280.14 244.76 277.45C246.63 275.14 247.66 272.23 247.66 269.27C247.66 269.06 247.64 268.87 247.63 268.66C252.01 268.79 255.55 272.33 255.55 276.69C255.55 279.04 254.51 281.27 252.7 282.8ZM242.29 275.5C240.14 278.16 222.91 299.45 220.75 302.11C220.35 301.78 219.92 301.47 219.49 301.18C220.94 297.73 232.56 270.17 234.01 266.72C234.7 265.1 235.04 263.39 235.04 261.63C235.04 260.84 234.96 260.06 234.82 259.31C240.2 259.53 244.51 263.91 244.51 269.27C244.51 271.53 243.72 273.74 242.29 275.5ZM222.4 256.44C222.42 256.35 222.43 256.26 222.43 256.17C222.43 255.71 222.43 252 222.43 251.54C227.71 251.94 231.89 256.3 231.89 261.63C231.89 262.97 231.63 264.28 231.1 265.52C229.66 268.94 218.14 296.26 216.7 299.67C216.14 299.43 215.57 299.21 214.97 299.03C216.46 290.51 220.92 264.96 222.4 256.44ZM200.35 249.94C200.35 247.36 202.47 245.26 205.08 245.26C206.03 245.26 213.6 245.26 214.54 245.26C217.15 245.26 219.27 247.36 219.27 249.94C219.27 250.34 219.27 252.38 219.27 256.04C214.84 281.45 212.38 295.57 211.88 298.39C211.2 298.31 210.51 298.25 209.81 298.25C209.11 298.25 208.42 298.31 207.74 298.39C207.24 295.56 204.78 281.45 200.35 256.04C200.35 252.79 200.35 250.75 200.35 249.94ZM197.19 256.17C197.19 256.26 197.2 256.35 197.22 256.44C197.96 260.7 203.91 294.77 204.65 299.03C204.06 299.21 203.48 299.43 202.92 299.67C201.48 296.26 189.96 268.94 188.52 265.52C188 264.28 187.73 262.97 187.73 261.63C187.73 256.3 191.91 251.94 197.19 251.54C197.19 252.46 197.19 255.71 197.19 256.17ZM184.58 261.63C184.58 263.39 184.92 265.1 185.61 266.72C187.06 270.17 198.68 297.73 200.13 301.18C199.69 301.47 199.27 301.78 198.87 302.11C196.71 299.45 179.48 278.16 177.33 275.5C175.9 273.74 175.11 271.53 175.11 269.27C175.11 263.91 179.42 259.53 184.8 259.31C184.66 260.06 184.58 260.84 184.58 261.63ZM171.99 268.66C171.98 268.87 171.96 269.06 171.96 269.27C171.96 272.23 172.99 275.14 174.86 277.45C177.04 280.14 194.43 301.62 196.6 304.31C196 305.01 195.46 305.77 194.97 306.56C192.16 304.19 169.72 285.18 166.92 282.8C165.11 281.27 164.07 279.04 164.07 276.69C164.07 272.33 167.61 268.79 171.99 268.66ZM177.9 304.12C175.21 302.79 173.54 300.12 173.54 297.15C173.54 296.84 173.54 295.3 173.54 292.51C184.91 302.14 191.22 307.49 192.48 308.56C190.94 308.74 189.47 308.93 188.05 309.14C186.02 308.14 179.93 305.12 177.9 304.12ZM192.46 315.4C192.46 316.02 192.5 316.64 192.57 317.26C185.8 316.63 178.92 317.15 172.32 318.93C171.6 319.12 165.8 320.68 165.08 320.88C168.03 317.29 177.56 313.43 192.89 311.67C192.62 312.87 192.46 314.12 192.46 315.4ZM164.3 324.32C165.18 324.08 172.26 322.17 173.15 321.94C183.93 319.03 195.51 319.56 205.98 323.44C206.64 323.68 211.87 325.62 212.53 325.87C218.91 328.23 225.6 329.43 232.41 329.43C237.44 329.43 242.45 328.76 247.3 327.45C248.03 327.26 253.9 325.67 254.64 325.48C250.59 330.66 233.31 335.66 209.81 335.66C184.57 335.66 166.49 329.9 164.3 324.32Z" id="bWL9juEUL"></path></defs><g><g><g><g></g><use xlink:href="#bWL9juEUL" opacity="1" fill="#ffffff" fill-opacity="1"></use><g><use xlink:href="#bWL9juEUL" opacity="1" fill-opacity="0" stroke="#000000" stroke-width="1" stroke-opacity="0"></use></g><g></g></g></g></g></svg>