<?xml version="1.0" standalone="no"?>
<!DOCTYPE svg PUBLIC "-//W3C//DTD SVG 20010904//EN"
 "http://www.w3.org/TR/2001/REC-SVG-20010904/DTD/svg10.dtd">
<svg version="1.0" xmlns="http://www.w3.org/2000/svg"
 width="111.000000pt" height="23.000000pt" viewBox="0 0 111.000000 23.000000"
 preserveAspectRatio="xMidYMid meet">
<metadata>
Created by potrace 1.16, written by Peter Selinger 2001-2019
</metadata>
<g transform="translate(0.000000,23.000000) scale(0.100000,-0.100000)"
fill="#000000" stroke="none">
<path d="M0 115 l0 -115 555 0 555 0 0 115 0 115 -555 0 -555 0 0 -115z m1070
20 c0 -72 -1 -75 -23 -75 -20 0 -23 4 -19 33 3 28 1 33 -18 33 -19 0 -21 -5
-18 -33 l4 -33 -71 0 c-39 0 -76 5 -82 11 -8 8 -13 8 -17 0 -4 -6 -18 -11 -32
-11 -33 0 -52 40 -36 76 10 21 18 25 44 22 42 -4 54 -38 14 -38 -16 0 -26 -6
-26 -14 0 -25 18 -28 55 -10 41 19 53 32 27 30 -9 0 -17 6 -17 14 0 10 11 15
35 15 34 0 35 -1 38 -42 2 -24 8 -43 14 -43 6 0 9 18 6 46 l-3 46 43 -4 c43
-3 43 -3 40 24 -4 24 -1 28 19 28 22 0 23 -3 23 -75z"/>
</g>
</svg>
